<svg xmlns="http://www.w3.org/2000/svg" xmlns:xlink="http://www.w3.org/1999/xlink" version="1.1" width="256" height="256" viewBox="0 0 256 256" xml:space="preserve">

<defs>
</defs>
<g style="stroke: none; stroke-width: 0; stroke-dasharray: none; stroke-linecap: butt; stroke-linejoin: miter; stroke-miterlimit: 10; fill: none; fill-rule: nonzero; opacity: 1;" transform="translate(1.4065934065934016 1.4065934065934016) scale(2.81 2.81)" >
	<path d="M 84.087 50.753 c 0 -5.045 -2.199 -9.523 -5.597 -12.329 c 1.622 -2.515 2.579 -5.589 2.579 -8.912 c 0 -6.992 -4.225 -12.891 -10.01 -14.763 c -1.957 -5.523 -6.72 -9.483 -12.354 -9.759 l 0.043 -0.009 C 57.707 2.064 55.132 0 52.121 0 C 48.191 0 45.005 3.515 45 7.853 C 44.995 3.515 41.809 0 37.879 0 c -3.012 0 -5.587 2.064 -6.628 4.981 l 0.043 0.009 c -5.634 0.276 -10.397 4.236 -12.354 9.759 c -5.784 1.872 -10.01 7.771 -10.01 14.763 c 0 3.323 0.957 6.397 2.579 8.912 c -3.398 2.806 -5.597 7.284 -5.597 12.329 c 0 4.59 1.823 8.708 4.71 11.527 c -0.603 1.722 -0.938 3.591 -0.938 5.548 c 0 8.498 6.239 15.387 13.936 15.387 c 1.129 0 2.225 -0.152 3.276 -0.432 l 0.193 -1.473 C 27.645 86.208 31.422 90 36.007 90 c 4.964 0 8.988 -4.44 8.993 -9.92 C 45.005 85.56 49.029 90 53.993 90 c 4.586 0 8.362 -3.792 8.916 -8.689 l 0.193 1.473 c 1.051 0.28 2.148 0.432 3.276 0.432 c 7.697 0 13.936 -6.889 13.936 -15.387 c 0 -1.957 -0.334 -3.827 -0.938 -5.548 C 82.264 59.462 84.087 55.344 84.087 50.753 z" style="stroke: none; stroke-width: 1; stroke-dasharray: none; stroke-linecap: butt; stroke-linejoin: miter; stroke-miterlimit: 10; fill: rgb(255,168,190); fill-rule: nonzero; opacity: 1;" transform=" matrix(1 0 0 1 0 0) " stroke-linecap="round" />
	<path d="M 27.174 39.419 c -1.532 0 -3.062 -0.359 -4.503 -1.074 c -0.506 -0.251 -0.713 -0.865 -0.462 -1.371 c 0.252 -0.506 0.864 -0.713 1.371 -0.462 c 2.098 1.041 4.431 1.139 6.569 0.275 c 2.35 -0.95 4.16 -2.921 5.098 -5.551 c 0.19 -0.532 0.773 -0.811 1.306 -0.62 c 0.532 0.19 0.81 0.775 0.62 1.306 c -1.136 3.189 -3.358 5.59 -6.258 6.762 C 29.701 39.175 28.437 39.419 27.174 39.419 z" style="stroke: none; stroke-width: 1; stroke-dasharray: none; stroke-linecap: butt; stroke-linejoin: miter; stroke-miterlimit: 10; fill: rgb(209,103,130); fill-rule: nonzero; opacity: 1;" transform=" matrix(1 0 0 1 0 0) " stroke-linecap="round" />
	<path d="M 20.056 29.177 c -0.334 0 -0.661 -0.163 -0.857 -0.463 c -2.5 -3.822 -2.897 -7.839 -1.214 -12.281 c 0.201 -0.528 0.792 -0.794 1.319 -0.594 c 0.528 0.2 0.794 0.791 0.594 1.319 c -1.435 3.787 -1.104 7.201 1.013 10.437 c 0.309 0.472 0.177 1.107 -0.296 1.416 C 20.442 29.123 20.247 29.177 20.056 29.177 z" style="stroke: none; stroke-width: 1; stroke-dasharray: none; stroke-linecap: butt; stroke-linejoin: miter; stroke-miterlimit: 10; fill: rgb(209,103,130); fill-rule: nonzero; opacity: 1;" transform=" matrix(1 0 0 1 0 0) " stroke-linecap="round" />
	<path d="M 26.254 27.066 c -0.471 0 -0.895 -0.328 -0.999 -0.807 c -0.119 -0.552 0.232 -1.097 0.784 -1.215 c 5.957 -1.284 8.049 -5.162 6.583 -12.2 c -0.115 -0.553 0.24 -1.095 0.793 -1.21 c 0.555 -0.118 1.095 0.24 1.21 0.793 c 1.701 8.166 -1.043 13.084 -8.154 14.617 C 26.398 27.059 26.325 27.066 26.254 27.066 z" style="stroke: none; stroke-width: 1; stroke-dasharray: none; stroke-linecap: butt; stroke-linejoin: miter; stroke-miterlimit: 10; fill: rgb(209,103,130); fill-rule: nonzero; opacity: 1;" transform=" matrix(1 0 0 1 0 0) " stroke-linecap="round" />
	<path d="M 33.563 49.272 c -0.269 0 -0.539 -0.008 -0.809 -0.024 c -0.564 -0.033 -0.994 -0.516 -0.962 -1.08 c 0.033 -0.564 0.512 -0.985 1.081 -0.962 c 3.102 0.176 6.088 -0.858 8.196 -2.846 c 1.904 -1.796 2.91 -4.164 2.91 -6.847 c 0 -0.565 0.458 -1.023 1.023 -1.023 s 1.023 0.458 1.023 1.023 c 0 3.214 -1.262 6.174 -3.552 8.335 C 40.142 48.046 36.932 49.272 33.563 49.272 z" style="stroke: none; stroke-width: 1; stroke-dasharray: none; stroke-linecap: butt; stroke-linejoin: miter; stroke-miterlimit: 10; fill: rgb(209,103,130); fill-rule: nonzero; opacity: 1;" transform=" matrix(1 0 0 1 0 0) " stroke-linecap="round" />
	<path d="M 25.034 66.428 c -0.099 0 -0.199 -0.014 -0.299 -0.044 c -0.54 -0.165 -0.845 -0.736 -0.68 -1.276 c 1.957 -6.423 -0.031 -10.374 -6.254 -12.435 c -0.536 -0.178 -0.827 -0.756 -0.649 -1.292 c 0.177 -0.536 0.754 -0.826 1.292 -0.649 c 7.31 2.421 9.857 7.458 7.568 14.971 C 25.877 66.145 25.472 66.428 25.034 66.428 z" style="stroke: none; stroke-width: 1; stroke-dasharray: none; stroke-linecap: butt; stroke-linejoin: miter; stroke-miterlimit: 10; fill: rgb(209,103,130); fill-rule: nonzero; opacity: 1;" transform=" matrix(1 0 0 1 0 0) " stroke-linecap="round" />
	<path d="M 23.758 56.14 c -0.366 0 -0.719 -0.196 -0.903 -0.54 c -1.696 -3.174 -1.786 -6.397 -0.267 -9.581 c 0.244 -0.51 0.854 -0.726 1.363 -0.482 c 0.51 0.243 0.726 0.853 0.482 1.363 c -1.24 2.601 -1.167 5.131 0.225 7.735 c 0.266 0.498 0.078 1.119 -0.42 1.384 C 24.086 56.101 23.921 56.14 23.758 56.14 z" style="stroke: none; stroke-width: 1; stroke-dasharray: none; stroke-linecap: butt; stroke-linejoin: miter; stroke-miterlimit: 10; fill: rgb(209,103,130); fill-rule: nonzero; opacity: 1;" transform=" matrix(1 0 0 1 0 0) " stroke-linecap="round" />
	<path d="M 40.33 76.718 c -0.167 0 -0.337 -0.041 -0.494 -0.128 c -6.802 -3.764 -8.515 -9.201 -5.091 -16.159 c 0.249 -0.506 0.862 -0.714 1.369 -0.466 c 0.507 0.25 0.716 0.863 0.466 1.369 c -2.933 5.961 -1.584 10.24 4.246 13.466 c 0.494 0.274 0.673 0.896 0.4 1.39 C 41.039 76.527 40.69 76.718 40.33 76.718 z" style="stroke: none; stroke-width: 1; stroke-dasharray: none; stroke-linecap: butt; stroke-linejoin: miter; stroke-miterlimit: 10; fill: rgb(209,103,130); fill-rule: nonzero; opacity: 1;" transform=" matrix(1 0 0 1 0 0) " stroke-linecap="round" />
	<path d="M 34.204 80.857 c -0.202 0 -0.407 -0.06 -0.585 -0.185 c -0.463 -0.324 -0.575 -0.962 -0.252 -1.424 c 1.624 -2.321 1.944 -4.827 0.978 -7.66 c -0.182 -0.534 0.104 -1.116 0.638 -1.297 c 0.535 -0.185 1.116 0.104 1.298 0.638 c 1.174 3.446 0.758 6.64 -1.239 9.492 C 34.845 80.706 34.527 80.857 34.204 80.857 z" style="stroke: none; stroke-width: 1; stroke-dasharray: none; stroke-linecap: butt; stroke-linejoin: miter; stroke-miterlimit: 10; fill: rgb(209,103,130); fill-rule: nonzero; opacity: 1;" transform=" matrix(1 0 0 1 0 0) " stroke-linecap="round" />
	<path d="M 17.216 66.259 c -1.754 0 -3.497 -0.726 -5.208 -2.174 c -0.431 -0.366 -0.485 -1.011 -0.12 -1.442 c 0.365 -0.431 1.01 -0.483 1.441 -0.12 c 1.919 1.624 3.749 2.068 5.601 1.356 c 0.526 -0.201 1.119 0.06 1.321 0.587 c 0.203 0.527 -0.06 1.12 -0.587 1.322 C 18.848 66.102 18.031 66.259 17.216 66.259 z" style="stroke: none; stroke-width: 1; stroke-dasharray: none; stroke-linecap: butt; stroke-linejoin: miter; stroke-miterlimit: 10; fill: rgb(209,103,130); fill-rule: nonzero; opacity: 1;" transform=" matrix(1 0 0 1 0 0) " stroke-linecap="round" />
	<path d="M 13.557 38.425 c -0.314 0 -0.623 -0.144 -0.824 -0.415 c -0.336 -0.454 -0.239 -1.095 0.216 -1.43 c 1.272 -0.938 2.572 -1.606 3.864 -1.983 c 0.544 -0.159 1.11 0.153 1.268 0.695 c 0.158 0.542 -0.153 1.11 -0.695 1.268 c -1.061 0.31 -2.145 0.869 -3.223 1.665 C 13.98 38.36 13.767 38.425 13.557 38.425 z" style="stroke: none; stroke-width: 1; stroke-dasharray: none; stroke-linecap: butt; stroke-linejoin: miter; stroke-miterlimit: 10; fill: rgb(209,103,130); fill-rule: nonzero; opacity: 1;" transform=" matrix(1 0 0 1 0 0) " stroke-linecap="round" />
	<path d="M 37.121 55.224 c -0.435 0 -0.839 -0.28 -0.976 -0.717 c -1.038 -3.318 0.233 -7.125 2.891 -8.668 c 0.488 -0.284 1.114 -0.118 1.398 0.371 c 0.284 0.488 0.117 1.115 -0.371 1.398 c -1.835 1.065 -2.717 3.885 -1.966 6.287 c 0.168 0.539 -0.132 1.113 -0.671 1.281 C 37.326 55.209 37.223 55.224 37.121 55.224 z" style="stroke: none; stroke-width: 1; stroke-dasharray: none; stroke-linecap: butt; stroke-linejoin: miter; stroke-miterlimit: 10; fill: rgb(209,103,130); fill-rule: nonzero; opacity: 1;" transform=" matrix(1 0 0 1 0 0) " stroke-linecap="round" />
	<path d="M 33.745 20.665 c -0.177 0 -0.357 -0.046 -0.52 -0.143 c -0.486 -0.288 -0.647 -0.915 -0.359 -1.401 c 0.965 -1.63 2.576 -3.821 5.419 -4.031 c 0.574 -0.053 1.054 0.381 1.095 0.944 c 0.042 0.563 -0.381 1.054 -0.944 1.095 c -1.457 0.108 -2.632 1.043 -3.81 3.033 C 34.435 20.486 34.095 20.665 33.745 20.665 z" style="stroke: none; stroke-width: 1; stroke-dasharray: none; stroke-linecap: butt; stroke-linejoin: miter; stroke-miterlimit: 10; fill: rgb(209,103,130); fill-rule: nonzero; opacity: 1;" transform=" matrix(1 0 0 1 0 0) " stroke-linecap="round" />
	<path d="M 45 79.048 c -0.565 0 -1.023 -0.457 -1.023 -1.023 L 43.977 9.908 c 0 -0.565 0.458 -1.023 1.023 -1.023 s 1.023 0.458 1.023 1.023 l 0.001 68.117 C 46.024 78.59 45.565 79.048 45 79.048 z" style="stroke: none; stroke-width: 1; stroke-dasharray: none; stroke-linecap: butt; stroke-linejoin: miter; stroke-miterlimit: 10; fill: rgb(209,103,130); fill-rule: nonzero; opacity: 1;" transform=" matrix(1 0 0 1 0 0) " stroke-linecap="round" />
	<path d="M 59.734 36.327 c -1.263 0 -2.527 -0.244 -3.742 -0.735 c -2.898 -1.172 -5.121 -3.573 -6.257 -6.762 c -0.189 -0.532 0.089 -1.117 0.62 -1.306 c 0.533 -0.189 1.117 0.088 1.307 0.62 c 0.937 2.63 2.747 4.602 5.097 5.551 c 2.137 0.865 4.471 0.766 6.569 -0.275 c 0.504 -0.251 1.12 -0.044 1.37 0.462 c 0.252 0.506 0.045 1.12 -0.461 1.371 C 62.795 35.968 61.265 36.327 59.734 36.327 z" style="stroke: none; stroke-width: 1; stroke-dasharray: none; stroke-linecap: butt; stroke-linejoin: miter; stroke-miterlimit: 10; fill: rgb(209,103,130); fill-rule: nonzero; opacity: 1;" transform=" matrix(1 0 0 1 0 0) " stroke-linecap="round" />
	<path d="M 71.714 26.176 c -0.077 0 -0.156 -0.008 -0.234 -0.027 c -0.55 -0.128 -0.892 -0.679 -0.763 -1.228 c 0.498 -2.131 0.298 -4.336 -0.614 -6.74 c -0.2 -0.528 0.066 -1.119 0.594 -1.319 c 0.529 -0.2 1.119 0.066 1.319 0.594 c 1.045 2.759 1.277 5.427 0.692 7.931 C 72.599 25.858 72.178 26.176 71.714 26.176 z" style="stroke: none; stroke-width: 1; stroke-dasharray: none; stroke-linecap: butt; stroke-linejoin: miter; stroke-miterlimit: 10; fill: rgb(209,103,130); fill-rule: nonzero; opacity: 1;" transform=" matrix(1 0 0 1 0 0) " stroke-linecap="round" />
	<path d="M 62.119 28.731 c -0.186 0 -0.375 -0.05 -0.543 -0.157 c -6.158 -3.872 -7.055 -9.431 -2.667 -16.524 c 0.298 -0.48 0.928 -0.628 1.408 -0.332 c 0.48 0.298 0.628 0.928 0.332 1.408 c -3.783 6.114 -3.143 10.472 2.015 13.715 c 0.478 0.301 0.622 0.932 0.322 1.41 C 62.791 28.562 62.458 28.731 62.119 28.731 z" style="stroke: none; stroke-width: 1; stroke-dasharray: none; stroke-linecap: butt; stroke-linejoin: miter; stroke-miterlimit: 10; fill: rgb(209,103,130); fill-rule: nonzero; opacity: 1;" transform=" matrix(1 0 0 1 0 0) " stroke-linecap="round" />
	<path d="M 45 78.933 c -0.565 0 -1.023 -0.457 -1.023 -1.023 c 0 -3.215 1.261 -6.175 3.552 -8.336 c 2.516 -2.375 6.049 -3.616 9.719 -3.399 c 0.563 0.033 0.994 0.516 0.961 1.081 c -0.032 0.563 -0.498 0.987 -1.081 0.961 c -3.092 -0.172 -6.087 0.856 -8.195 2.844 c -1.905 1.797 -2.911 4.165 -2.911 6.848 C 46.022 78.475 45.564 78.933 45 78.933 z" style="stroke: none; stroke-width: 1; stroke-dasharray: none; stroke-linecap: butt; stroke-linejoin: miter; stroke-miterlimit: 10; fill: rgb(209,103,130); fill-rule: nonzero; opacity: 1;" transform=" matrix(1 0 0 1 0 0) " stroke-linecap="round" />
	<path d="M 61.765 74.277 c -0.358 0 -0.704 -0.188 -0.892 -0.52 c -0.278 -0.492 -0.103 -1.117 0.389 -1.393 c 3.916 -2.206 4.732 -5.128 2.568 -9.196 c -0.266 -0.498 -0.076 -1.118 0.422 -1.383 c 0.498 -0.269 1.118 -0.076 1.383 0.422 c 2.689 5.054 1.524 9.183 -3.369 11.938 C 62.108 74.235 61.935 74.277 61.765 74.277 z" style="stroke: none; stroke-width: 1; stroke-dasharray: none; stroke-linecap: butt; stroke-linejoin: miter; stroke-miterlimit: 10; fill: rgb(209,103,130); fill-rule: nonzero; opacity: 1;" transform=" matrix(1 0 0 1 0 0) " stroke-linecap="round" />
	<path d="M 66.268 77.217 c -0.313 0 -0.622 -0.143 -0.823 -0.413 c -1.561 -2.105 -1.956 -4.467 -1.173 -7.02 c 0.166 -0.539 0.738 -0.846 1.277 -0.678 c 0.54 0.166 0.844 0.737 0.678 1.277 c -0.59 1.925 -0.309 3.626 0.861 5.203 c 0.336 0.453 0.241 1.095 -0.213 1.431 C 66.693 77.151 66.479 77.217 66.268 77.217 z" style="stroke: none; stroke-width: 1; stroke-dasharray: none; stroke-linecap: butt; stroke-linejoin: miter; stroke-miterlimit: 10; fill: rgb(209,103,130); fill-rule: nonzero; opacity: 1;" transform=" matrix(1 0 0 1 0 0) " stroke-linecap="round" />
	<path d="M 54.639 53.189 c -0.245 0 -0.49 -0.087 -0.686 -0.264 c -0.418 -0.38 -0.451 -1.026 -0.073 -1.445 c 5.203 -5.752 10.887 -6.169 16.896 -1.239 c 0.437 0.359 0.5 1.003 0.143 1.439 c -0.359 0.436 -1.004 0.5 -1.439 0.143 c -5.154 -4.227 -9.627 -3.899 -14.081 1.03 C 55.195 53.075 54.918 53.189 54.639 53.189 z" style="stroke: none; stroke-width: 1; stroke-dasharray: none; stroke-linecap: butt; stroke-linejoin: miter; stroke-miterlimit: 10; fill: rgb(209,103,130); fill-rule: nonzero; opacity: 1;" transform=" matrix(1 0 0 1 0 0) " stroke-linecap="round" />
	<path d="M 64.151 49.031 c -0.541 0 -0.993 -0.425 -1.021 -0.972 c -0.028 -0.564 0.406 -1.045 0.971 -1.073 c 2.989 -0.149 5.199 -1.372 6.757 -3.739 c 0.31 -0.471 0.943 -0.602 1.416 -0.292 c 0.471 0.311 0.602 0.945 0.292 1.417 c -1.914 2.909 -4.727 4.476 -8.363 4.658 C 64.186 49.031 64.168 49.031 64.151 49.031 z" style="stroke: none; stroke-width: 1; stroke-dasharray: none; stroke-linecap: butt; stroke-linejoin: miter; stroke-miterlimit: 10; fill: rgb(209,103,130); fill-rule: nonzero; opacity: 1;" transform=" matrix(1 0 0 1 0 0) " stroke-linecap="round" />
	<path d="M 72.783 66.259 c -0.815 0 -1.632 -0.157 -2.449 -0.47 c -0.526 -0.203 -0.79 -0.795 -0.587 -1.322 c 0.204 -0.527 0.793 -0.789 1.322 -0.587 c 1.849 0.712 3.682 0.268 5.6 -1.355 c 0.434 -0.367 1.078 -0.311 1.441 0.119 c 0.366 0.431 0.312 1.077 -0.119 1.441 C 76.281 65.532 74.537 66.259 72.783 66.259 z" style="stroke: none; stroke-width: 1; stroke-dasharray: none; stroke-linecap: butt; stroke-linejoin: miter; stroke-miterlimit: 10; fill: rgb(209,103,130); fill-rule: nonzero; opacity: 1;" transform=" matrix(1 0 0 1 0 0) " stroke-linecap="round" />
	<path d="M 76.444 38.425 c -0.211 0 -0.423 -0.065 -0.606 -0.2 c -1.079 -0.796 -2.162 -1.355 -3.223 -1.665 c -0.542 -0.158 -0.853 -0.726 -0.695 -1.268 c 0.159 -0.542 0.725 -0.854 1.268 -0.695 c 1.291 0.377 2.592 1.044 3.864 1.983 c 0.454 0.335 0.551 0.975 0.216 1.43 C 77.067 38.281 76.757 38.425 76.444 38.425 z" style="stroke: none; stroke-width: 1; stroke-dasharray: none; stroke-linecap: butt; stroke-linejoin: miter; stroke-miterlimit: 10; fill: rgb(209,103,130); fill-rule: nonzero; opacity: 1;" transform=" matrix(1 0 0 1 0 0) " stroke-linecap="round" />
	<path d="M 50.45 69.722 c -0.353 0 -0.696 -0.183 -0.886 -0.509 c -0.284 -0.488 -0.117 -1.115 0.372 -1.398 c 1.836 -1.066 2.718 -3.886 1.967 -6.287 c -0.169 -0.539 0.131 -1.113 0.67 -1.281 c 0.541 -0.171 1.113 0.132 1.281 0.67 c 1.038 3.317 -0.232 7.124 -2.891 8.668 C 50.801 69.678 50.624 69.722 50.45 69.722 z" style="stroke: none; stroke-width: 1; stroke-dasharray: none; stroke-linecap: butt; stroke-linejoin: miter; stroke-miterlimit: 10; fill: rgb(209,103,130); fill-rule: nonzero; opacity: 1;" transform=" matrix(1 0 0 1 0 0) " stroke-linecap="round" />
	<path d="M 57.267 20.155 c -0.482 0 -0.912 -0.343 -1.004 -0.834 c -0.426 -2.273 -1.211 -3.553 -2.544 -4.152 c -0.515 -0.232 -0.745 -0.837 -0.513 -1.352 c 0.232 -0.515 0.837 -0.744 1.352 -0.513 c 2.601 1.17 3.366 3.779 3.714 5.64 c 0.105 0.555 -0.261 1.09 -0.816 1.194 C 57.393 20.149 57.329 20.155 57.267 20.155 z" style="stroke: none; stroke-width: 1; stroke-dasharray: none; stroke-linecap: butt; stroke-linejoin: miter; stroke-miterlimit: 10; fill: rgb(209,103,130); fill-rule: nonzero; opacity: 1;" transform=" matrix(1 0 0 1 0 0) " stroke-linecap="round" />
</g>
</svg>