<svg xmlns="http://www.w3.org/2000/svg" xmlns:xlink="http://www.w3.org/1999/xlink" version="1.1" width="256" height="256" viewBox="0 0 256 256" xml:space="preserve">

<defs>
</defs>
<g style="stroke: none; stroke-width: 0; stroke-dasharray: none; stroke-linecap: butt; stroke-linejoin: miter; stroke-miterlimit: 10; fill: none; fill-rule: nonzero; opacity: 1;" transform="translate(1.4065934065934016 1.4065934065934016) scale(2.81 2.81)" >
	<path d="M 76.824 13.221 C 68.33 4.727 57.036 0.048 45.023 0.048 c -9.856 0 -19.225 3.154 -26.964 8.976 l 1.534 -6.302 c 0.261 -1.073 -0.397 -2.155 -1.47 -2.416 c -1.073 -0.263 -2.155 0.397 -2.416 1.47 l -3.015 12.386 c -0.003 0.014 -0.002 0.027 -0.005 0.041 c -0.025 0.112 -0.037 0.225 -0.043 0.339 c -0.001 0.027 -0.008 0.054 -0.008 0.081 c -0.001 0.14 0.014 0.28 0.042 0.417 c 0.007 0.036 0.022 0.069 0.031 0.104 c 0.026 0.101 0.058 0.2 0.1 0.296 c 0.02 0.046 0.047 0.089 0.071 0.134 c 0.043 0.079 0.088 0.157 0.142 0.231 c 0.015 0.021 0.024 0.044 0.04 0.065 c 0.022 0.028 0.051 0.049 0.075 0.076 c 0.029 0.033 0.052 0.071 0.084 0.102 c 0.029 0.029 0.062 0.049 0.092 0.075 c 0.046 0.04 0.091 0.079 0.14 0.115 c 0.071 0.052 0.144 0.098 0.22 0.139 c 0.047 0.026 0.092 0.052 0.141 0.074 c 0.089 0.04 0.179 0.07 0.272 0.096 c 0.043 0.012 0.084 0.028 0.128 0.038 c 0.139 0.03 0.279 0.048 0.421 0.048 h 12.809 c 1.104 0 2 -0.895 2 -2 s -0.895 -2 -2 -2 h -7.512 c 7.151 -5.562 15.886 -8.587 25.09 -8.587 c 10.945 0 21.235 4.262 28.973 12.001 c 11.266 11.266 14.985 28.21 9.475 43.167 c -0.382 1.036 0.149 2.186 1.185 2.568 c 0.229 0.084 0.462 0.124 0.691 0.124 c 0.813 0 1.579 -0.501 1.877 -1.309 C 93.272 44.183 89.19 25.586 76.824 13.221 z" style="stroke: none; stroke-width: 1; stroke-dasharray: none; stroke-linecap: butt; stroke-linejoin: miter; stroke-miterlimit: 10; fill: rgb(57,216,158); fill-rule: nonzero; opacity: 1;" transform=" matrix(1 0 0 1 0 0) " stroke-linecap="round" />
	<path d="M 77.364 75.376 c 0.001 -0.139 -0.014 -0.278 -0.042 -0.414 c -0.008 -0.038 -0.023 -0.074 -0.033 -0.112 c -0.026 -0.098 -0.056 -0.195 -0.098 -0.289 c -0.02 -0.046 -0.046 -0.089 -0.07 -0.133 c -0.043 -0.081 -0.09 -0.16 -0.146 -0.236 c -0.014 -0.02 -0.023 -0.042 -0.038 -0.061 c -0.021 -0.027 -0.048 -0.046 -0.07 -0.071 c -0.031 -0.035 -0.054 -0.074 -0.088 -0.108 c -0.03 -0.03 -0.065 -0.051 -0.096 -0.078 c -0.044 -0.039 -0.088 -0.075 -0.135 -0.11 c -0.073 -0.054 -0.148 -0.1 -0.225 -0.143 c -0.046 -0.025 -0.09 -0.051 -0.137 -0.072 c -0.09 -0.04 -0.181 -0.071 -0.275 -0.097 c -0.042 -0.012 -0.083 -0.028 -0.126 -0.037 c -0.139 -0.03 -0.279 -0.048 -0.421 -0.048 h -12.81 c -1.104 0 -2 0.895 -2 2 s 0.895 2 2 2 h 7.505 C 54 89.82 30.742 88.688 16.004 73.951 C 4.333 62.28 0.8 44.854 7.003 29.557 c 0.415 -1.023 -0.078 -2.19 -1.102 -2.605 c -1.023 -0.414 -2.189 0.078 -2.605 1.102 c -6.808 16.789 -2.93 35.915 9.88 48.725 c 8.768 8.769 20.283 13.153 31.802 13.152 c 9.505 -0.001 19.007 -2.996 26.967 -8.968 l -1.538 6.315 c -0.261 1.072 0.397 2.154 1.471 2.416 c 0.158 0.039 0.317 0.057 0.475 0.057 c 0.9 0 1.719 -0.612 1.941 -1.527 l 3.015 -12.385 c 0.003 -0.013 0.002 -0.027 0.005 -0.04 c 0.024 -0.11 0.036 -0.221 0.042 -0.333 C 77.357 75.435 77.364 75.405 77.364 75.376 z" style="stroke: none; stroke-width: 1; stroke-dasharray: none; stroke-linecap: butt; stroke-linejoin: miter; stroke-miterlimit: 10; fill: rgb(57,216,158); fill-rule: nonzero; opacity: 1;" transform=" matrix(1 0 0 1 0 0) " stroke-linecap="round" />
	<path d="M 28.712 73.464 c 0.359 0.273 0.786 0.409 1.212 0.409 c 0.454 0 0.907 -0.154 1.276 -0.46 l 30.152 -25.002 c 0.53 -0.439 0.797 -1.121 0.706 -1.804 c -0.091 -0.682 -0.525 -1.27 -1.152 -1.556 l -9.711 -4.433 l 8.033 -21.8 c 0.323 -0.877 -0.005 -1.862 -0.79 -2.37 c -0.785 -0.509 -1.817 -0.404 -2.485 0.249 L 28.917 43.132 c -0.501 0.49 -0.709 1.207 -0.548 1.889 c 0.161 0.682 0.667 1.231 1.335 1.445 l 8.276 2.66 l -9.879 21.926 C 27.718 71.901 27.972 72.901 28.712 73.464 z" style="stroke: none; stroke-width: 1; stroke-dasharray: none; stroke-linecap: butt; stroke-linejoin: miter; stroke-miterlimit: 10; fill: rgb(255,218,64); fill-rule: nonzero; opacity: 1;" transform=" matrix(1 0 0 1 0 0) " stroke-linecap="round" />
</g>
</svg>  